# xmcd CD database file generated by LOLA_Freedb v0.9beta0
#
# Track frame offsets:
#      150
#      14579
#      30803
#
# Disc length: 591 seconds
#
# Revision: 0
# Processed by: cddbd v1.5.2PL0 Copyright (c) Steve Scherf et al.
# Submitted via: LOLA_Freedb v0.9beta0
#
DISCID=15024d03
DTITLE=Darren Scott - Back On The Road
DYEAR=2012
DGENRE=
TTITLE0=Darren Scott - Back On The Road
TTITLE1=Darren Scott - Days Away
TTITLE2=Darren Scott - In The Past
EXTD=
EXTT0=
EXTT1=
EXTT2=
PLAYORDER=
